<svg width="17" height="17" viewBox="0 0 17 17" fill="none" xmlns="http://www.w3.org/2000/svg">
<g clip-path="url(#clip0_130_101)">
<path d="M6.07374 1.02625C4.47509 1.58083 3.09642 2.63346 2.14023 4.0295C1.18404 5.42554 0.700732 7.09143 0.761296 8.78245C0.82186 10.4735 1.4231 12.1005 2.47671 13.4246C3.53032 14.7486 4.98077 15.6999 6.61499 16.1387C7.9399 16.4806 9.328 16.4956 10.66 16.1825C11.8666 15.9115 12.9822 15.3317 13.8975 14.5C14.8501 13.6079 15.5415 12.4731 15.8975 11.2175C16.2844 9.85208 16.3532 8.41616 16.0987 7.02H8.65874V10.1062H12.9675C12.8814 10.5985 12.6968 11.0683 12.4249 11.4875C12.153 11.9068 11.7993 12.2669 11.385 12.5462C10.8588 12.8943 10.2657 13.1285 9.64374 13.2337C9.01992 13.3497 8.38006 13.3497 7.75624 13.2337C7.12398 13.103 6.52587 12.8421 5.99999 12.4675C5.15518 11.8695 4.52084 11.0199 4.18749 10.04C3.84851 9.04174 3.84851 7.95951 4.18749 6.96125C4.42478 6.26152 4.81703 5.62442 5.33499 5.0975C5.92773 4.48343 6.67816 4.04449 7.50394 3.82884C8.32972 3.61319 9.19894 3.62916 10.0162 3.875C10.6547 4.07099 11.2386 4.41342 11.7212 4.875C12.2071 4.39166 12.6921 3.90708 13.1762 3.42125C13.4262 3.16 13.6987 2.91125 13.945 2.64375C13.2082 1.95809 12.3433 1.42457 11.4 1.07375C9.68212 0.449985 7.80246 0.433222 6.07374 1.02625Z" fill="white"/>
<path d="M6.07372 1.02624C7.8023 0.432816 9.68196 0.449138 11.4 1.07249C12.3435 1.4257 13.208 1.96179 13.9437 2.64999C13.6937 2.91749 13.43 3.16749 13.175 3.42749C12.69 3.91166 12.2054 4.39416 11.7212 4.87499C11.2385 4.41342 10.6547 4.07098 10.0162 3.87499C9.19919 3.6283 8.32999 3.6114 7.50399 3.82617C6.678 4.04094 5.92711 4.47907 5.33372 5.09249C4.81576 5.61941 4.4235 6.25652 4.18622 6.95624L1.59497 4.94999C2.52248 3.1107 4.12841 1.70377 6.07372 1.02624Z" fill="#E33629"/>
<path d="M0.90756 6.93751C1.04684 6.24725 1.27806 5.5788 1.59506 4.95001L4.18631 6.96126C3.84733 7.95952 3.84733 9.04175 4.18631 10.04C3.32298 10.7067 2.45923 11.3767 1.59506 12.05C0.801498 10.4704 0.559476 8.67064 0.90756 6.93751Z" fill="#F8BD00"/>
<path d="M8.65876 7.01874H16.0988C16.3533 8.4149 16.2844 9.85082 15.8975 11.2162C15.5416 12.4718 14.8501 13.6067 13.8975 14.4987C13.0613 13.8462 12.2213 13.1987 11.385 12.5462C11.7996 12.2666 12.1535 11.9061 12.4254 11.4864C12.6973 11.0667 12.8817 10.5964 12.9675 10.1037H8.65876C8.65751 9.07624 8.65876 8.04749 8.65876 7.01874Z" fill="#587DBD"/>
<path d="M1.59375 12.05C2.45792 11.3833 3.32167 10.7133 4.185 10.04C4.51901 11.0203 5.15426 11.8699 6 12.4675C6.52751 12.8403 7.12691 13.0992 7.76 13.2275C8.38382 13.3435 9.02368 13.3435 9.6475 13.2275C10.2695 13.1222 10.8626 12.888 11.3888 12.54C12.225 13.1925 13.065 13.84 13.9012 14.4925C12.9861 15.3247 11.8705 15.9049 10.6637 16.1763C9.33176 16.4894 7.94365 16.4744 6.61875 16.1325C5.57088 15.8527 4.59209 15.3595 3.74375 14.6838C2.84583 13.9709 2.11244 13.0725 1.59375 12.05Z" fill="#319F43"/>
</g>
<defs>
<clipPath id="clip0_130_101">
<rect width="16" height="16" fill="white" transform="translate(0.5 0.5)"/>
</clipPath>
</defs>
</svg>
